<svg xmlns="http://www.w3.org/2000/svg" viewBox="0 0 291 137"><path fill="#223343" d="m16 20.5c-4.2 0-7.5 3.3-7.5 7.5v99h15v-99c0-4.2-3.3-7.5-7.5-7.5zm17.67 11.5c15.94-39.87 87.52-29.13 86.05 16 .44 36.69-44.17 46.76-72.33 41 16.47-10.84 44.47-14.44 47.09-38-1.73-30.18-40.94-26.92-60.81-19z"/><path fill="#EE5918" d="m126.67 11c23.57-3.39 55.8 10.54 56.33 38-.86 27.42-32.81 42.34-56.56 39 29.48-14.52 30.78-63 .23-77zm63.76 12c16.6-1.71 40.1 6.94 42.08 26-.98 20.29-24.69 28.83-41.94 28 17.97-12.32 20.06-42.21-.14-54zm52.1 12c12.92 1.07 27.61 7.94 39 15-11.58 7.34-25.84 13.32-39.03 15 7.54-8.22 8.67-22.04.03-30z"/></svg>